<svg xmlns="http://www.w3.org/2000/svg" viewBox="0 0 160 160">
  <defs>
    <radialGradient id="rubber" cx="50%" cy="50%" r="50%">
      <stop offset="0%" stop-color="#111827"/>
      <stop offset="46%" stop-color="#111827"/>
      <stop offset="64%" stop-color="#020617"/>
      <stop offset="100%" stop-color="#0f172a"/>
    </radialGradient>
    <linearGradient id="metal" x1="25%" y1="20%" x2="80%" y2="85%">
      <stop offset="0%" stop-color="#f8fafc"/>
      <stop offset="45%" stop-color="#cbd5e1"/>
      <stop offset="100%" stop-color="#0fae96"/>
    </linearGradient>
  </defs>

  <circle cx="80" cy="80" r="72" fill="url(#rubber)"/>
  <circle cx="80" cy="80" r="60" fill="none" stroke="#0f766e" stroke-width="6"/>
  <circle cx="80" cy="80" r="44" fill="#0b1220"/>

  <g stroke="#334155" stroke-width="9" stroke-linecap="round">
    <line x1="80" y1="11" x2="80" y2="26"/>
    <line x1="80" y1="134" x2="80" y2="149"/>
    <line x1="11" y1="80" x2="26" y2="80"/>
    <line x1="134" y1="80" x2="149" y2="80"/>
    <line x1="31" y1="31" x2="42" y2="42"/>
    <line x1="118" y1="118" x2="129" y2="129"/>
    <line x1="31" y1="129" x2="42" y2="118"/>
    <line x1="118" y1="42" x2="129" y2="31"/>
  </g>

  <circle cx="80" cy="80" r="38" fill="url(#metal)" stroke="#bfff00" stroke-width="3"/>
  <g fill="#f8fff0">
    <path d="M76 79 L43 69 A38 38 0 0 1 51 54 Z"/>
    <path d="M81 76 L91 43 A38 38 0 0 1 106 51 Z"/>
    <path d="M84 81 L117 91 A38 38 0 0 1 109 106 Z"/>
    <path d="M79 84 L69 117 A38 38 0 0 1 54 109 Z"/>
    <path d="M77 76 L54 51 A38 38 0 0 1 70 43 Z"/>
    <path d="M84 77 L109 54 A38 38 0 0 1 117 70 Z"/>
    <path d="M83 84 L106 109 A38 38 0 0 1 90 117 Z"/>
    <path d="M76 83 L51 106 A38 38 0 0 1 43 90 Z"/>
  </g>
  <circle cx="80" cy="80" r="17" fill="#f8fafc" stroke="#bfff00" stroke-width="5"/>
  <circle cx="80" cy="80" r="7" fill="#1f2937"/>
</svg>
