<svg xmlns="http://www.w3.org/2000/svg" viewBox="0 0 64 64">
  <g fill="none" stroke="#bfff00" stroke-width="4.5" stroke-linecap="round" stroke-linejoin="round">
    <path d="M10 38h31l-3.5-10.5c-.7-2-2.5-3.3-4.6-3.3H20c-2.1 0-4 1.4-4.6 3.3L10 38Z"/>
    <path d="M8 38v9h7l2.5-4h17l2.5 4h7v-9"/>
    <path d="M18 32h18"/>
    <circle cx="18" cy="43" r="2.7"/>
    <circle cx="35" cy="43" r="2.7"/>
    <path d="m49 14 2.6 5.2 5.8.8-4.2 4.1 1 5.8-5.2-2.7-5.2 2.7 1-5.8-4.2-4.1 5.8-.8L49 14Z" fill="#bfff00" stroke-width="3.2"/>
  </g>
</svg>
